<svg xmlns="http://www.w3.org/2000/svg" viewBox="0 0 64 64" fill="none" aria-hidden="true">
  <defs>
    <linearGradient id="gold" x1="0" y1="0" x2="1" y2="1">
      <stop offset="0%" stop-color="#fcd34d"/>
      <stop offset="100%" stop-color="#d97706"/>
    </linearGradient>
    <radialGradient id="orb" cx="0.35" cy="0.3">
      <stop offset="0%" stop-color="#fef3c7"/>
      <stop offset="100%" stop-color="#f59e0b"/>
    </radialGradient>
  </defs>
  <g fill="#fff">
    <path d="M 32 22 C 26 22 24 26 24 29 C 24 31 25 33 27 34 L 37 34 C 39 33 40 31 40 29 C 40 26 38 22 32 22 Z"/>
    <rect x="29" y="34" width="6" height="3"/>
    <path d="M 26 37 L 38 37 L 40 41 L 24 41 Z"/>
    <path d="M 25 41 L 39 41 L 43 53 L 21 53 Z"/>
    <rect x="18" y="53" width="28" height="5" rx="1.5"/>
  </g>
  <rect x="23" y="40.3" width="18" height="1.4" fill="url(#gold)" rx="0.5"/>
  <path d="M 30 4 L 34 4 L 34 9 L 39 9 L 39 13 L 34 13 L 34 18 L 30 18 L 30 13 L 25 13 L 25 9 L 30 9 Z" fill="url(#gold)"/>
  <circle cx="32" cy="20" r="2.2" fill="url(#orb)"/>
</svg>
